<svg xmlns="http://www.w3.org/2000/svg" viewBox="0 0 184.92 80.4"><defs><style>.cls-1,.cls-2{fill:#3a4390;}.cls-2{fill-rule:evenodd;}</style></defs><title>Recurso 1</title><g id="Capa_2" data-name="Capa 2"><g id="Capa_1-2" data-name="Capa 1"><g id="_1" data-name="1"><path class="cls-1" d="M141.87,10.54a5.26,5.26,0,0,1-2-.4A5.27,5.27,0,0,1,137,7.34a5.13,5.13,0,0,1-.41-2.07A5.2,5.2,0,0,1,137,3.2a5.26,5.26,0,0,1,1.13-1.66A5.17,5.17,0,0,1,139.83.41a5.27,5.27,0,0,1,2-.41,5.18,5.18,0,0,1,3.77,1.54,5,5,0,0,1,1.57,3.73A5.07,5.07,0,0,1,145.64,9,5.21,5.21,0,0,1,141.87,10.54Z"/><rect class="cls-1" x="137.02" y="13.67" width="9.76" height="37.71"/><path class="cls-1" d="M169.34,52.58a21,21,0,0,1-6.37-.89,17.65,17.65,0,0,1-4.85-2.35A15.36,15.36,0,0,1,154.66,46a15.57,15.57,0,0,1-2.16-3.83l8.72-3.73a9.36,9.36,0,0,0,3.39,4.21A8.48,8.48,0,0,0,169.34,44a8,8,0,0,0,4.25-1,2.75,2.75,0,0,0,1.56-2.31,2.85,2.85,0,0,0-1.3-2.42,13.56,13.56,0,0,0-4.51-1.68l-5.14-1.12a17.56,17.56,0,0,1-3.54-1.19,13.7,13.7,0,0,1-3.32-2.09,10.66,10.66,0,0,1-2.46-3,8.63,8.63,0,0,1-1-4.18,9.68,9.68,0,0,1,1.16-4.77,10.78,10.78,0,0,1,3.16-3.54A15.16,15.16,0,0,1,163,14.46a22.15,22.15,0,0,1,15.17,1.26,12.61,12.61,0,0,1,6,6.53l-8.42,3.42a6.47,6.47,0,0,0-3.06-3.13,9.27,9.27,0,0,0-4-1,7.49,7.49,0,0,0-3.65.86,2.52,2.52,0,0,0-1.57,2.2,2.24,2.24,0,0,0,1.31,2A14.54,14.54,0,0,0,168.3,28l5.59,1.35q5.58,1.34,8.31,4.28a10,10,0,0,1,2.72,7,9.84,9.84,0,0,1-1.12,4.55A12.24,12.24,0,0,1,180.63,49a15.63,15.63,0,0,1-4.92,2.64A19.67,19.67,0,0,1,169.34,52.58Z"/><path class="cls-1" d="M79.91.42V19.26a11.18,11.18,0,0,0-4.18-4,13.81,13.81,0,0,0-7-1.64,15.78,15.78,0,0,0-6.67,1.46,17.76,17.76,0,0,0-5.59,4,19.08,19.08,0,0,0-3.84,6.15,21,21,0,0,0-1.42,7.83A20.92,20.92,0,0,0,52.63,41a18.87,18.87,0,0,0,3.84,6.15,17.63,17.63,0,0,0,5.59,4,15.77,15.77,0,0,0,6.67,1.45,13.81,13.81,0,0,0,7-1.64A11.11,11.11,0,0,0,79.91,47h.59v4.4h9.17V.42Zm-.23,37.11a9.92,9.92,0,0,1-2.16,3.27,9,9,0,0,1-3.09,2.05,9.62,9.62,0,0,1-3.69.71,9.46,9.46,0,0,1-3.69-.74A9.76,9.76,0,0,1,64,40.73a10.15,10.15,0,0,1-2.17-3.28,12,12,0,0,1,0-8.65A10.1,10.1,0,0,1,64,25.53a9.59,9.59,0,0,1,3.09-2.09,9.29,9.29,0,0,1,3.69-.75,9.81,9.81,0,0,1,3.69.71,9.17,9.17,0,0,1,3.09,2.05,10,10,0,0,1,2.16,3.28,11.14,11.14,0,0,1,.82,4.4A11.17,11.17,0,0,1,79.68,37.53Z"/><path class="cls-2" d="M48,33.13a24,24,0,1,1-24-24A24,24,0,0,1,48,33.13ZM41.91,37l-9.26,2.71a10.78,10.78,0,0,1-5.6,3.86,11,11,0,0,1-11.71-3.82l-.56-.72,27.43-8A18.74,18.74,0,0,0,41.59,28a19.4,19.4,0,0,0-1.35-3.35A18.35,18.35,0,0,0,5.71,34.72a17.89,17.89,0,0,0,.67,3.56,19,19,0,0,0,1.35,3.36A18.35,18.35,0,0,0,41.91,37ZM32.14,26.63l.54.72L13.55,33l.06-.89a10.46,10.46,0,0,1,7.31-9.4A10.46,10.46,0,0,1,32.14,26.63Z"/><path class="cls-1" d="M120.86.42V19.26a11.15,11.15,0,0,0-4.17-4,13.85,13.85,0,0,0-7-1.64A15.78,15.78,0,0,0,103,15.13a17.87,17.87,0,0,0-5.59,4,19.08,19.08,0,0,0-3.84,6.15,21.21,21.21,0,0,0-1.42,7.83A21.12,21.12,0,0,0,93.58,41a18.87,18.87,0,0,0,3.84,6.15,17.74,17.74,0,0,0,5.59,4,15.77,15.77,0,0,0,6.67,1.45,13.85,13.85,0,0,0,7-1.64A11.07,11.07,0,0,0,120.86,47h.6v4.4h9.16V.42Zm-.22,37.11a10.24,10.24,0,0,1-2.16,3.27,9.17,9.17,0,0,1-3.1,2.05,9.62,9.62,0,0,1-3.69.71,9.46,9.46,0,0,1-3.69-.74,9.76,9.76,0,0,1-3.09-2.09,10.12,10.12,0,0,1-2.16-3.28,11.82,11.82,0,0,1,0-8.65,10.08,10.08,0,0,1,2.16-3.27A9.59,9.59,0,0,1,108,23.44a9.29,9.29,0,0,1,3.69-.75,9.81,9.81,0,0,1,3.69.71,9.32,9.32,0,0,1,3.1,2.05,10.29,10.29,0,0,1,2.16,3.28,12.21,12.21,0,0,1,0,8.8Z"/></g><path class="cls-1" d="M6.69,73.65v1.27h3.48v2H6.69v1.35h3.83v2H4.61V71.66h5.91v2Z"/><path class="cls-1" d="M32.87,76a4.25,4.25,0,0,1-4.39,4.29h-3.2V71.66h3.2A4.25,4.25,0,0,1,32.87,76Zm-2.09,0a2.19,2.19,0,0,0-2.3-2.3H27.36v4.61h1.12A2.2,2.2,0,0,0,30.78,76Z"/><path class="cls-1" d="M54.92,71.66v5.08a3.61,3.61,0,1,1-7.21,0V71.66h2.12v5c0,1.35.6,1.81,1.49,1.81s1.5-.46,1.5-1.81v-5Z"/><path class="cls-1" d="M69.74,76a4.34,4.34,0,0,1,4.45-4.45,4.19,4.19,0,0,1,4.18,3.19H76.14a2,2,0,0,0-2-1.2,2.47,2.47,0,0,0,0,4.93,2,2,0,0,0,2-1.21h2.23a4.18,4.18,0,0,1-4.18,3.19A4.34,4.34,0,0,1,69.74,76Z"/><path class="cls-1" d="M98.24,78.46H95l-.61,1.78H92.21l3.11-8.58H98l3.11,8.58H98.85Zm-.69-2-.91-2.67-.92,2.67Z"/><path class="cls-1" d="M120.92,73.65h-2.34v6.59H116.5V73.65h-2.33v-2h6.75Z"/><path class="cls-1" d="M135.56,71.66h2.08v8.58h-2.08Z"/><path class="cls-1" d="M160.3,71.66l-2.71,8.58H155l-2.69-8.58h2.21l1.8,6.06,1.8-6.06Z"/><path class="cls-1" d="M179.31,78.46H176.1l-.61,1.78h-2.21l3.12-8.58H179l3.11,8.58h-2.21Zm-.68-2-.92-2.67-.92,2.67Z"/></g></g></svg>